<svg xmlns="http://www.w3.org/2000/svg" xmlns:xlink="http://www.w3.org/1999/xlink" version="1.1" x="0px" y="0px" width="100px" height="100px" viewBox="0 0 100 100" enable-background="new 0 0 100 100" xml:space="preserve">
<g id="Captions" display="none">
	<rect x="-192" display="inline" width="185" height="99"/>
	<rect y="-36" display="inline" width="100" height="30"/>
	<text transform="matrix(1 0 0 1 66 -19.5)" display="inline" fill="#000000" font-family="'Helvetica'" font-size="2.4">http://thenounproject.com</text>
	<text transform="matrix(1 0 0 1 7.166 -24.5)" display="inline"><tspan x="0" y="0" fill="#000000" font-family="'Helvetica-Bold'" font-size="6.1578">The Noun Project</tspan><tspan x="1.12" y="4.8" fill="#000000" font-family="'Helvetica-Bold'" font-size="4">Icon Template</tspan></text>
	
		<text transform="matrix(1 0 0 1 -178.5 10.5)" display="inline" fill="#000000" font-family="'Helvetica-Bold'" font-size="6.1578">Reminders</text>
	<line display="inline" fill="#000000" stroke="#FFFFFF" stroke-miterlimit="10" x1="8" y1="-14.5" x2="18" y2="-14.5"/>
	<line display="inline" fill="#000000" stroke="#FFFFFF" stroke-miterlimit="10" x1="-179" y1="16.5" x2="-162" y2="16.5"/>
	<g display="inline">
		<g>
			<g>
				<rect x="-170.802" y="31.318" fill="#000000" width="8.721" height="8.642"/>
				<path fill="#000000" d="M-164.455,42.312h4.747v-4.703h-4.747V42.312z M-159.266,42.749h-5.63V37.17h5.63V42.749      L-159.266,42.749z M-166.221,44.062h8.279v-8.203h-8.279V44.062L-166.221,44.062z M-157.5,44.5h-9.163v-9.079h9.163V44.5      L-157.5,44.5z"/>
				<polygon fill="#000000" points="-166.149,44.133 -166.292,43.991 -158.013,35.787 -157.871,35.929     "/>
			</g>
		</g>
	</g>
	<rect x="-179" y="58" display="inline" fill="none" width="35" height="32.5"/>
	<text transform="matrix(1 0 0 1 -179 60.1299)" display="inline"><tspan x="0" y="0" fill="#000000" font-family="'Helvetica-Bold'" font-size="3">Strokes</tspan><tspan x="0" y="5" fill="#000000" font-family="'Helvetica'" font-size="2.4">Try to keep strokes at 4px</tspan><tspan x="0" y="10" fill="#000000" font-family="'Helvetica'" font-size="2.4">Minimum stroke weight is 2px</tspan><tspan x="0" y="14.5" fill="#000000" font-family="'Helvetica'" font-size="2.4">For thicker strokes use even </tspan><tspan x="0" y="17.5" fill="#000000" font-family="'Helvetica'" font-size="2.4">numbers: 6px, 8px etc.</tspan><tspan x="0" y="22" fill="#000000" font-family="'Helvetica-Bold'" font-size="2.4">Remember to expand strokes </tspan><tspan x="0" y="25" fill="#000000" font-family="'Helvetica-Bold'" font-size="2.4">before saving as an SVG </tspan></text>
	<rect x="-136.5" y="58" display="inline" fill="none" width="35" height="32.5"/>
	<text transform="matrix(1 0 0 1 -136.5 60.1299)" display="inline"><tspan x="0" y="0" fill="#000000" font-family="'Helvetica-Bold'" font-size="3">Size</tspan><tspan x="0" y="5" fill="#000000" font-family="'Helvetica'" font-size="2.4">Cannot be wider or taller than </tspan><tspan x="0" y="8.5" fill="#000000" font-family="'Helvetica'" font-size="2.4">100px (artboard size)</tspan><tspan x="0" y="13.5" fill="#000000" font-family="'Helvetica'" font-size="2.4">Scale your icon to fill as much of </tspan><tspan x="0" y="16.5" fill="#000000" font-family="'Helvetica'" font-size="2.4">the artboard as possible</tspan></text>
	<rect x="-94" y="58" display="inline" fill="none" width="35" height="32.5"/>
	<text transform="matrix(1 0 0 1 -94 60.1299)" display="inline"><tspan x="0" y="0" fill="#000000" font-family="'Helvetica-Bold'" font-size="3">Ungroup</tspan><tspan x="0" y="5" fill="#000000" font-family="'Helvetica'" font-size="2.4">If your design has more than one </tspan><tspan x="0" y="8" fill="#000000" font-family="'Helvetica'" font-size="2.4">shape, make sure to ungroup</tspan></text>
	<rect x="-50" y="58" display="inline" fill="none" width="35" height="32.5"/>
	<text transform="matrix(1 0 0 1 -50 60.1299)" display="inline"><tspan x="0" y="0" fill="#000000" font-family="'Helvetica-Bold'" font-size="3">Save as</tspan><tspan x="0" y="5" fill="#000000" font-family="'Helvetica'" font-size="2.4">Save as .SVG and make sure &#8220;Use </tspan><tspan x="0" y="8" fill="#000000" font-family="'Helvetica'" font-size="2.4">Artboards&#8221; is checked</tspan></text>
	
		<text transform="matrix(1.0074 0 0 1 -125.542 30.5933)" display="inline" fill="#000000" font-family="'Helvetica'" font-size="2.5731">100px</text>
	
		<text transform="matrix(1.0074 0 0 1 -41 39)" display="inline" fill="#000000" font-family="'Helvetica-Bold'" font-size="5.1462">.SVG</text>
	<rect x="-126.514" y="34.815" display="inline" fill="#000000" width="10.261" height="10.185"/>
	<rect x="-126.477" y="31.766" display="inline" fill="#000000" width="0.522" height="2.337"/>
	<rect x="-116.813" y="31.766" display="inline" fill="#000000" width="0.523" height="2.337"/>
	<rect x="-127" y="32.337" display="inline" fill="#000000" width="11.233" height="0.572"/>
	<g display="inline">
		<rect x="-83.805" y="33.844" fill="#000000" width="10.305" height="10.156"/>
		<rect x="-76.809" y="28.707" fill="#000000" width="3.308" height="3.261"/>
	</g>
	<rect x="-178.5" y="22.5" display="inline" fill="#000000" stroke="#FFFFFF" stroke-miterlimit="10" width="30" height="30"/>
	<rect x="-136.5" y="22.5" display="inline" fill="#000000" stroke="#FFFFFF" stroke-miterlimit="10" width="30" height="30"/>
	<rect x="-93.5" y="22.5" display="inline" fill="#000000" stroke="#FFFFFF" stroke-miterlimit="10" width="30" height="30"/>
	<rect x="-49.5" y="22.5" display="inline" fill="#000000" stroke="#FFFFFF" stroke-miterlimit="10" width="30" height="30"/>
</g>
<g id="Your_Icon" display="none">
	<path display="inline" d="M96.309,10.05L80.962,9.907c-2.114-0.024-3.852,1.678-3.869,3.794c-0.023,2.125,1.679,3.857,3.797,3.874   l6.082,0.055l-29.24,28.692c-0.27,0.247-0.538,0.501-0.81,0.768L44.328,59.447l-2.223-2.26c-0.529-0.542-0.986-1.145-1.443-1.75   l15.972-15.675l0.001,0.007l7.804-7.665l8.596-8.438c1.521-1.49,1.545-3.945,0.049-5.468c-1.491-1.524-3.943-1.544-5.465-0.046   l-8.596,8.432l-6.159,6.039c-0.744,0.468-1.472,1.133-2.201,1.854L36.088,48.781c-3.167-6.763-3.877-13.293,1.784-18.852   c5.736-5.625,11.877-2.77,15.92-6.724c2.901-2.847,2.31-7.271-0.405-10.036c-6.454-6.582-19.803,2.484-24.829,7.418   c-11.679,11.461-12.306,25.829-3.939,39.447c-1.194,1.168-2.838,2.495-3.725,3.968l-3.443,3.368l-7.804,7.66l-8.594,8.436   c-1.526,1.49-1.55,3.949-0.054,5.47c1.494,1.521,3.944,1.547,5.466,0.05l8.598-8.435l14.338-14.069   c0.542,0.678,1.194,1.354,1.797,1.961l1.942,1.982c-0.441,0.435-0.905,0.885-1.352,1.349l-9.77,9.598   c-1.512,1.483-1.536,3.913-0.05,5.427c1.482,1.513,3.913,1.53,5.423,0.046l8.551-8.388c0.559-0.397,1.099-0.882,1.63-1.396   l1.624-1.6c13.65,9.809,27.685,9.665,39.931-2.363c5.168-5.067,15.035-18.08,8.297-24.951c-2.434-2.476-6.139-3.146-8.759-0.572   c-3.753,3.678-2.624,10.773-7.723,15.768c-6.296,6.192-13.378,5.211-20.421,1.003l11.893-11.664   c0.56-0.547,1.064-1.085,1.472-1.643l28.459-27.926l-0.056,6.083c-0.021,2.12,1.676,3.851,3.797,3.869   c2.117,0.022,3.856-1.68,3.871-3.794l0.149-15.343C100.128,11.808,98.427,10.071,96.309,10.05z"/>
</g>
<g id="Your_Icon_copia" display="none">
	<g display="inline">
		<path d="M9.117,8.945L8.853,9.208C-2.223,20.284-2.691,38.339,8.385,49.415L50.67,91.7c11.076,11.076,29.13,10.609,40.209-0.469    l0.261-0.261c11.078-11.078,10.911-28.5-0.165-39.576L48.689,9.109C37.614-1.966,20.192-2.131,9.117,8.945z M81.528,70.883    c-3.257-0.985-6.091-1.03-9.133-1.025c0.053-1.276,0.185-2.519,0.267-3.847c0.048-0.789,0.094-1.591,0.136-2.396    c6.108,0.033,12.728,1.025,19.756,5.32c1.485,0.908,1.965,2.86,1.058,4.345c-0.132,0.219-0.262,0.441-0.435,0.614    c-1.007,1.007-2.553,1.284-3.82,0.509c-1.317-0.804-2.713-1.563-3.784-1.906L72.457,85.611c0.343,1.071,1.103,2.468,1.908,3.785    c0.774,1.268,0.444,2.762-0.562,3.768c-0.174,0.174-0.368,0.33-0.586,0.464c-1.486,0.906-3.425,0.44-4.332-1.045    c-4.295-7.028-5.271-13.63-5.305-19.739c-0.006-0.851,0.014-1.687,0.039-2.519c0.052-1.653,0.163-3.254,0.258-4.828    c0.031-0.502,0.091-0.97,0.119-1.46c0.05-0.863,0.147-1.649,0.18-2.479c0.16-4.171-0.367-8.312-1.377-11.545L49.975,62.839    c3.232,1.01,7.372,1.537,11.545,1.377c-0.023,0.4-0.16,0.688-0.187,1.099c-0.099,1.624-0.201,3.33-0.251,5.104    c-7.682,0.231-15.526-0.69-23.278-8.442c-7.734-7.734-8.671-15.578-8.439-23.261c0.026-0.844,0.057-1.691,0.103-2.53    c0.043-0.769,0.075-1.55,0.122-2.313c0.085-1.351,0.139-2.717,0.195-4.048c0.034-0.844,0-1.742,0.005-2.582    c0.016-2.738,0.139-5.167-0.896-8.375L18.828,28.932c3.207,1.036,5.637,0.913,8.375,0.897c-0.054,1.245-0.018,2.62-0.099,3.915    c-0.052,0.821-0.098,1.659-0.144,2.499c-6.165-0.012-12.841-0.953-19.983-5.229c-1.494-0.894-1.968-2.818-1.075-4.313    c0.137-0.229,0.319-0.411,0.499-0.591c0.999-0.999,2.624-1.188,3.889-0.431c1.692,1.013,3.133,1.586,5.056,2.492l12.787-12.787    c-0.907-1.922-1.478-3.363-2.491-5.056c-0.757-1.265-0.607-2.935,0.388-3.932c0.18-0.179,0.383-0.339,0.612-0.475    c1.495-0.895,3.431-0.407,4.326,1.086c4.275,7.143,5.225,13.827,5.236,19.992c0.002,0.852-0.006,1.7-0.035,2.531    c-0.054,1.628-0.143,3.229-0.24,4.78c-0.033,0.527-0.046,1.065-0.078,1.58c-0.049,0.862-0.053,1.741-0.087,2.572    c-0.174,4.502,0.186,8.701,1.937,12.607l13.331-13.33c-3.906-1.752-8.105-2.111-12.607-1.938c0.026-0.42-0.025-0.92,0.002-1.354    c0.101-1.604,0.203-3.289,0.256-5.04c7.683-0.232,15.522,0.701,23.256,8.436c7.752,7.751,8.671,15.593,8.44,23.274    c-0.025,0.843-0.067,1.681-0.113,2.519c-0.04,0.737-0.089,1.47-0.134,2.204c-0.086,1.381-0.181,2.733-0.233,4.094    c-0.032,0.843-0.078,1.657-0.078,2.499c-0.007,3.042,0.039,5.875,1.024,9.132L81.528,70.883z"/>
		<path d="M57.316,42.14c-1.141-1.14-1.897-1.715-3.481-2.96L39.14,53.875c1.245,1.583,1.819,2.34,2.961,3.481    c1.396,1.396,3.283,3.002,4.24,3.459L60.776,46.38C60.319,45.423,58.714,43.536,57.316,42.14z"/>
	</g>
	<g display="inline">
		<path d="M121.021,0.64l-0.264,0.264c-13.262,13.262-14.106,33.64-1.883,45.864l42.285,42.285    c12.563,12.564,34.468,12.344,47.28-0.469l0.26-0.26c12.34-12.34,11.646-32.009-1.579-45.234L164.837,0.805    C151.991-12.04,133.771-12.109,121.021,0.64z M204.293,45.918c11.077,11.078,12.657,28.498,1.579,39.578l-0.26,0.26    c-11.079,11.078-30.548,11.545-41.624,0.469l-42.285-42.286c-11.075-11.075-9.193-29.13,1.883-40.207l0.169-0.168l0.048-0.048    c11.075-11.075,27.13-10.958,38.205,0.118L204.293,45.918z"/>
		<path d="M183.923,63.754c0.054-1.36,0.147-2.713,0.234-4.094c0.045-0.734,0.094-1.467,0.134-2.204    c0.046-0.839,0.088-1.676,0.112-2.519c0.23-7.681-0.688-15.524-8.44-23.274c-7.733-7.734-15.573-8.668-23.256-8.436    c-0.053,1.751-0.154,3.436-0.255,5.04c-0.028,0.434,0.023,0.934-0.002,1.354c4.502-0.174,8.701,0.186,12.606,1.937l-13.33,13.33    c-1.75-3.906-2.11-8.104-1.937-12.607c0.033-0.831,0.038-1.71,0.087-2.573c0.031-0.514,0.045-1.052,0.077-1.58    c0.098-1.551,0.187-3.152,0.24-4.78c0.029-0.832,0.037-1.68,0.035-2.531c-0.012-6.166-0.961-12.849-5.236-19.992    c-0.896-1.493-2.832-1.981-4.326-1.086c-0.229,0.136-0.432,0.296-0.611,0.476c-0.996,0.997-1.146,2.666-0.389,3.932    c1.014,1.693,1.584,3.134,2.491,5.056l-12.787,12.787c-1.922-0.906-3.362-1.479-5.055-2.492c-1.266-0.758-2.891-0.568-3.89,0.431    c-0.179,0.18-0.361,0.362-0.498,0.591c-0.895,1.494-0.42,3.419,1.074,4.313c7.143,4.276,13.818,5.217,19.984,5.229    c0.046-0.84,0.091-1.677,0.144-2.5c0.08-1.294,0.044-2.67,0.099-3.915c-2.738,0.016-5.17,0.14-8.376-0.896l10.065-10.066    c1.035,3.208,0.911,5.636,0.896,8.374c-0.005,0.841,0.028,1.739-0.005,2.582c-0.057,1.332-0.11,2.698-0.195,4.048    c-0.047,0.764-0.077,1.545-0.121,2.314c-0.047,0.839-0.077,1.687-0.104,2.53c-0.232,7.683,0.705,15.527,8.439,23.261    c7.752,7.752,15.597,8.674,23.278,8.443c0.049-1.774,0.151-3.48,0.251-5.104c0.025-0.41,0.162-0.698,0.186-1.099    c-4.172,0.16-8.312-0.367-11.545-1.377l12.825-12.825c1.01,3.233,1.537,7.374,1.377,11.544c-0.031,0.83-0.129,1.615-0.179,2.479    c-0.029,0.49-0.088,0.958-0.119,1.46c-0.096,1.574-0.207,3.175-0.259,4.828c-0.025,0.832-0.044,1.668-0.038,2.52    c0.032,6.108,1.01,12.709,5.304,19.738c0.908,1.486,2.847,1.951,4.332,1.045c0.218-0.135,0.413-0.291,0.586-0.463    c1.006-1.006,1.336-2.502,0.562-3.77c-0.805-1.316-1.565-2.713-1.908-3.783l13.115-13.116c1.072,0.343,2.467,1.103,3.784,1.905    c1.269,0.777,2.813,0.499,3.82-0.508c0.174-0.174,0.303-0.396,0.436-0.614c0.907-1.485,0.428-3.437-1.059-4.345    c-7.028-4.295-13.646-5.287-19.755-5.32c-0.042,0.805-0.089,1.607-0.137,2.396c-0.082,1.328-0.214,2.57-0.267,3.846    c3.043-0.004,5.876,0.041,9.134,1.026L184.87,75.385c-0.986-3.257-1.031-6.09-1.025-9.131    C183.845,65.411,183.892,64.597,183.923,63.754z M160.367,54.633c-0.957-0.457-2.845-2.063-4.24-3.459    c-1.143-1.141-1.717-1.898-2.961-3.482l14.695-14.695c1.583,1.245,2.341,1.82,3.481,2.961c1.397,1.396,3.003,3.283,3.46,4.24    L160.367,54.633z"/>
	</g>
</g>
<g id="Your_Icon_copia_2">
	<path d="M6.677,38.3c1.2-13.645,12.633-24.382,26.585-24.382c3.169,0,6.254,0.56,9.192,1.639c3.017-2.126,6.636-3.313,10.423-3.313   c6.287,0,12.011,3.315,15.276,8.413c5.591,0.554,10.526,3.666,13.472,8.288C91.435,30.344,99,38.8,99,48.991   c0,8.931-5.973,17.28-14.537,19.797C82.711,69.339,80.9,70,79.078,70H58v-0.313c-2-0.007-3.482-1.462-3.482-3.345   c0-1.885,1.451-3.342,3.338-3.342h-0.119l0,0h21.342c1.159,0,2.273-0.611,3.32-0.949c5.493-1.582,9.513-6.848,9.513-12.849   c0-7.27-5.893-13.267-13.161-13.267c-0.584,0-1.155-0.002-1.721,0.072c-1.221-4.769-5.533-8.327-10.684-8.327   c-0.935,0-1.838,0.116-2.704,0.333c-1.087-4.956-5.497-8.677-10.779-8.677c-3.765,0-7.086,1.886-9.078,4.765   c-3.056-1.955-6.685-3.096-10.579-3.096c-10.858,0-19.659,8.801-19.659,19.657c0,0.429,0.09,0.852,0.117,1.273   C10.272,43.746,8,47.305,8,51.409v0.09c0-0.031,0,0.275,0,0.247C8,57.687,12.734,63,18.688,63h18.429l-3.691-3.764   c-0.652-0.648-0.98-1.55-0.98-2.405c-0.001-0.854,0.322-1.733,0.973-2.385c1.303-1.31,3.42-1.322,4.727-0.021l9.471,9.431   c0.653,0.653,0.981,1.503,0.982,2.358c0.002,0.859-0.327,1.711-0.975,2.366l-9.441,9.466c-1.299,1.313-3.419,1.314-4.725,0.012   c-0.655-0.654-0.984-1.509-0.986-2.363c-0.001-0.854,0.314-1.555,0.968-2.208L37.055,70H18.688C8.888,70,1,61.268,1,51.468V51.35   C1,46.316,3.07,41.615,6.677,38.3z"/>
</g>
</svg>